<svg xmlns="http://www.w3.org/2000/svg" xmlns:xlink="http://www.w3.org/1999/xlink" width="119" height="121" viewBox="0 0 119 121">
  <defs>
    <filter id="Rectangle_1" x="17" y="26" width="93" height="77" filterUnits="userSpaceOnUse">
      <feOffset dx="3" dy="3" input="SourceAlpha"/>
      <feGaussianBlur stdDeviation="3" result="blur"/>
      <feFlood flood-opacity="0.6"/>
      <feComposite operator="in" in2="blur"/>
      <feComposite in="SourceGraphic"/>
    </filter>
    <filter id="Path_1" x="18.138" y="27.548" width="90.491" height="53.593" filterUnits="userSpaceOnUse">
      <feOffset dx="3" dy="3" input="SourceAlpha"/>
      <feGaussianBlur stdDeviation="3" result="blur-2"/>
      <feFlood flood-opacity="0.6"/>
      <feComposite operator="in" in2="blur-2"/>
      <feComposite in="SourceGraphic"/>
    </filter>
    <filter id="Path_3" x="60.43" y="51.559" width="40.929" height="41.725" filterUnits="userSpaceOnUse">
      <feOffset dx="3" dy="3" input="SourceAlpha"/>
      <feGaussianBlur stdDeviation="3" result="blur-3"/>
      <feFlood flood-opacity="0.6"/>
      <feComposite operator="in" in2="blur-3"/>
      <feComposite in="SourceGraphic"/>
    </filter>
    <filter id="Path_4" x="27.045" y="50.833" width="40.929" height="41.725" filterUnits="userSpaceOnUse">
      <feOffset dx="3" dy="3" input="SourceAlpha"/>
      <feGaussianBlur stdDeviation="3" result="blur-4"/>
      <feFlood flood-opacity="0.6"/>
      <feComposite operator="in" in2="blur-4"/>
      <feComposite in="SourceGraphic"/>
    </filter>
  </defs>
  <g id="envicon" transform="translate(0.024 0.476)">
    <rect id="Rectangle_34" data-name="Rectangle 34" width="119" height="121" rx="40" transform="translate(-0.024 -0.476)" fill="#276c4c"/>
    <g id="Group_3" data-name="Group 3" transform="translate(22.958 31.306)">
      <g transform="matrix(1, 0, 0, 1, -22.98, -31.78)" filter="url(#Rectangle_1)">
        <g id="Rectangle_1-2" data-name="Rectangle 1" transform="translate(23 32)" fill="none" stroke="#fff" stroke-width="5">
          <rect width="75" height="59" rx="6" stroke="none"/>
          <rect x="2.5" y="2.5" width="70" height="54" rx="3.5" fill="none"/>
        </g>
      </g>
      <g transform="matrix(1, 0, 0, 1, -22.98, -31.78)" filter="url(#Path_1)">
        <path id="Path_1-2" data-name="Path 1" d="M104.928,432.807l32.815,28.737,32.62-28.737" transform="translate(-77.26 -395.73)" fill="none" stroke="#fff" stroke-linecap="round" stroke-width="5"/>
      </g>
      <g transform="matrix(1, 0, 0, 1, -22.98, -31.78)" filter="url(#Path_3)">
        <path id="Path_3-2" data-name="Path 3" d="M116.543,449.374l15.86,16.656" transform="translate(-46.58 -388.28)" fill="none" stroke="#fff" stroke-linecap="round" stroke-width="5"/>
      </g>
      <g transform="matrix(1, 0, 0, 1, -22.98, -31.78)" filter="url(#Path_4)">
        <path id="Path_4-2" data-name="Path 4" d="M132.4,449.374l-15.86,16.656" transform="translate(-79.96 -389.01)" fill="none" stroke="#fff" stroke-linecap="round" stroke-width="5"/>
      </g>
    </g>
  </g>
</svg>
