<svg xmlns="http://www.w3.org/2000/svg" xmlns:xlink="http://www.w3.org/1999/xlink" width="119" height="121" viewBox="0 0 119 121">
  <defs>
    <filter id="Rectangle_2" x="19" y="21" width="86" height="86" filterUnits="userSpaceOnUse">
      <feOffset dx="3" dy="3" input="SourceAlpha"/>
      <feGaussianBlur stdDeviation="3" result="blur"/>
      <feFlood flood-opacity="0.6"/>
      <feComposite operator="in" in2="blur"/>
      <feComposite in="SourceGraphic"/>
    </filter>
    <filter id="Ellipse_2" x="66" y="32" width="28" height="28" filterUnits="userSpaceOnUse">
      <feOffset dx="3" dy="3" input="SourceAlpha"/>
      <feGaussianBlur stdDeviation="3" result="blur-2"/>
      <feFlood flood-opacity="0.6"/>
      <feComposite operator="in" in2="blur-2"/>
      <feComposite in="SourceGraphic"/>
    </filter>
    <filter id="Ellipse_3" x="36.001" y="38" width="52" height="53" filterUnits="userSpaceOnUse">
      <feOffset dx="3" dy="3" input="SourceAlpha"/>
      <feGaussianBlur stdDeviation="3" result="blur-3"/>
      <feFlood flood-opacity="0.6"/>
      <feComposite operator="in" in2="blur-3"/>
      <feComposite in="SourceGraphic"/>
    </filter>
  </defs>
  <g id="igicon" transform="translate(0.019 0.476)">
    <rect id="Rectangle_35" data-name="Rectangle 35" width="119" height="121" rx="40" transform="translate(-0.019 -0.476)" fill="#276c4c"/>
    <g id="Group_6" data-name="Group 6" transform="translate(25.045 26.436)">
      <g transform="matrix(1, 0, 0, 1, -25.06, -26.91)" filter="url(#Rectangle_2)">
        <g id="Rectangle_2-2" data-name="Rectangle 2" transform="translate(25 27)" fill="none" stroke="#fff" stroke-width="5">
          <rect width="68" height="68" rx="14" stroke="none"/>
          <rect x="2.5" y="2.5" width="63" height="63" rx="11.5" fill="none"/>
        </g>
      </g>
      <g transform="matrix(1, 0, 0, 1, -25.06, -26.91)" filter="url(#Ellipse_2)">
        <circle id="Ellipse_2-2" data-name="Ellipse 2" cx="5" cy="5" r="5" transform="translate(72 38)" fill="#fff"/>
      </g>
      <g transform="matrix(1, 0, 0, 1, -25.06, -26.91)" filter="url(#Ellipse_3)">
        <g id="Ellipse_3-2" data-name="Ellipse 3" transform="translate(42 44)" fill="none" stroke="#fff" stroke-width="5">
          <ellipse cx="17" cy="17.5" rx="17" ry="17.5" stroke="none"/>
          <ellipse cx="17" cy="17.5" rx="14.5" ry="15" fill="none"/>
        </g>
      </g>
    </g>
  </g>
</svg>
