<svg xmlns="http://www.w3.org/2000/svg" xmlns:xlink="http://www.w3.org/1999/xlink" width="119" height="121" viewBox="0 0 119 121">
  <defs>
    <filter id="Rectangle_13" x="49" y="88" width="25" height="19" filterUnits="userSpaceOnUse">
      <feOffset dx="3" dy="3" input="SourceAlpha"/>
      <feGaussianBlur stdDeviation="3" result="blur"/>
      <feFlood flood-opacity="0.6"/>
      <feComposite operator="in" in2="blur"/>
      <feComposite in="SourceGraphic"/>
    </filter>
    <filter id="Path_11" x="27" y="9" width="71" height="109.289" filterUnits="userSpaceOnUse">
      <feOffset dx="3" dy="3" input="SourceAlpha"/>
      <feGaussianBlur stdDeviation="3" result="blur-2"/>
      <feFlood flood-opacity="0.6"/>
      <feComposite operator="in" in2="blur-2"/>
      <feComposite in="SourceGraphic"/>
    </filter>
    <filter id="Ellipse_4" x="54" y="94" width="10" height="10" filterUnits="userSpaceOnUse">
      <feOffset dy="3" input="SourceAlpha"/>
      <feGaussianBlur stdDeviation="3" result="blur-3"/>
      <feFlood flood-opacity="0.161" result="color"/>
      <feComposite operator="out" in="SourceGraphic" in2="blur-3"/>
      <feComposite operator="in" in="color"/>
      <feComposite operator="in" in2="SourceGraphic"/>
    </filter>
  </defs>
  <g id="phoneicon" transform="translate(0.014 0.172)">
    <rect id="Rectangle_36" data-name="Rectangle 36" width="119" height="121" rx="40" transform="translate(-0.014 -0.171)" fill="#276c4c"/>
    <g id="phone" transform="translate(32.697 14.609)">
      <g id="Group_9" data-name="Group 9" transform="translate(0 0)">
        <g transform="matrix(1, 0, 0, 1, -32.71, -14.78)" filter="url(#Rectangle_13)">
          <g id="Rectangle_13-2" data-name="Rectangle 13" transform="translate(55 94)" fill="#fff" stroke="#fff" stroke-width="1">
            <rect width="7" height="1" stroke="none"/>
            <rect x="0.5" y="0.5" width="6" fill="none"/>
          </g>
        </g>
        <g transform="matrix(1, 0, 0, 1, -32.71, -14.78)" filter="url(#Path_11)">
          <g id="Path_11-2" data-name="Path 11" transform="translate(33 15)" fill="none">
            <path d="M5,0H48a5,5,0,0,1,5,5V85c0,2.761-2.209,6.289-4.971,6.289h-43C2.268,91.289,0,87.761,0,85V5A5,5,0,0,1,5,0Z" stroke="none"/>
            <path d="M 5 3.999992370605469 C 4.448600769042969 3.999992370605469 4 4.448593139648438 4 4.999992370605469 L 4 84.99999237060547 C 4 85.30561065673828 4.125461578369141 85.87547302246094 4.479045867919922 86.47571563720703 C 4.747272491455078 86.93108367919922 5.031478881835938 87.19493103027344 5.175128936767578 87.28881072998047 L 47.87285614013672 87.28881072998047 C 48.01313781738281 87.19129180908203 48.28289031982422 86.92959594726562 48.53615570068359 86.48657989501953 C 48.87852478027344 85.88768768310547 49 85.31145477294922 49 84.99999237060547 L 49 4.999992370605469 C 49 4.448593139648438 48.55139923095703 3.999992370605469 48 3.999992370605469 L 5 3.999992370605469 M 5 -7.62939453125e-06 L 48 -7.62939453125e-06 C 50.76142883300781 -7.62939453125e-06 53 2.238578796386719 53 4.999992370605469 L 53 84.99999237060547 C 53 87.76142120361328 50.79072189331055 91.28881072998047 48.02929306030273 91.28881072998047 L 5.029293060302734 91.28881072998047 C 2.267875671386719 91.28881072998047 0 87.76142120361328 0 84.99999237060547 L 0 4.999992370605469 C 0 2.238578796386719 2.238567352294922 -7.62939453125e-06 5 -7.62939453125e-06 Z" stroke="none" fill="#fff"/>
          </g>
        </g>
        <g id="Rectangle_8" data-name="Rectangle 8" transform="translate(18.289 3.219)" fill="none" stroke="#fff" stroke-width="1">
          <rect width="17" height="6" rx="2" stroke="none"/>
          <rect x="0.5" y="0.5" width="16" height="5" rx="1.5" fill="none"/>
        </g>
        <g id="Rectangle_11" data-name="Rectangle 11" transform="translate(2.289 79.219)" fill="#fff" stroke="#fff" stroke-width="1">
          <rect width="21" height="9" stroke="none"/>
          <rect x="0.5" y="0.5" width="20" height="8" fill="none"/>
        </g>
        <g id="Rectangle_12" data-name="Rectangle 12" transform="translate(29.289 79.219)" fill="#fff" stroke="#fff" stroke-width="1">
          <rect width="21" height="9" stroke="none"/>
          <rect x="0.5" y="0.5" width="20" height="8" fill="none"/>
        </g>
        <g data-type="innerShadowGroup">
          <g transform="matrix(1, 0, 0, 1, -32.71, -14.78)" filter="url(#Ellipse_4)">
            <circle id="Ellipse_4-2" data-name="Ellipse 4" cx="5" cy="5" r="5" transform="translate(54 94)" fill="#fff"/>
          </g>
          <g id="Ellipse_4-3" data-name="Ellipse 4" transform="translate(21.289 79.219)" fill="none" stroke="#fff" stroke-width="2">
            <circle cx="5" cy="5" r="5" stroke="none"/>
            <circle cx="5" cy="5" r="4" fill="none"/>
          </g>
        </g>
        <g id="Rectangle_9" data-name="Rectangle 9" transform="translate(2.289 3.219)" fill="#fff" stroke="#fff" stroke-width="1">
          <rect width="17" height="7" stroke="none"/>
          <rect x="0.5" y="0.5" width="16" height="6" fill="none"/>
        </g>
        <g id="Rectangle_10" data-name="Rectangle 10" transform="translate(34.289 3.219)" fill="#fff" stroke="#fff" stroke-width="1">
          <rect width="17" height="7" stroke="none"/>
          <rect x="0.5" y="0.5" width="16" height="6" fill="none"/>
        </g>
        <path id="Path_5" data-name="Path 5" d="M77.719,356.427h48.964" transform="translate(-76.063 -347.208)" fill="none" stroke="#fff" stroke-width="2"/>
      </g>
    </g>
  </g>
</svg>
